%TF.GenerationSoftware,KiCad,Pcbnew,(6.0.0)*%
%TF.CreationDate,2022-03-27T15:49:17-04:00*%
%TF.ProjectId,TM_Warthog_Open_Analog_Slew,544d5f57-6172-4746-986f-675f4f70656e,rev?*%
%TF.SameCoordinates,Original*%
%TF.FileFunction,Legend,Top*%
%TF.FilePolarity,Positive*%
%FSLAX46Y46*%
G04 Gerber Fmt 4.6, Leading zero omitted, Abs format (unit mm)*
G04 Created by KiCad (PCBNEW (6.0.0)) date 2022-03-27 15:49:17*
%MOMM*%
%LPD*%
G01*
G04 APERTURE LIST*
%ADD10C,0.330267*%
%ADD11C,0.125000*%
%ADD12C,0.150000*%
%ADD13C,0.120000*%
G04 APERTURE END LIST*
D10*
X143700533Y-101752400D02*
G75*
G03*
X143700533Y-101752400I-165133J0D01*
G01*
D11*
X150711287Y-116478141D02*
X150254144Y-116478141D01*
X150482716Y-115778141D02*
X150482716Y-116478141D01*
X149987478Y-115778141D02*
X149987478Y-116478141D01*
X149720811Y-115978141D01*
X149454144Y-116478141D01*
X149454144Y-115778141D01*
X148539859Y-116478141D02*
X148349382Y-115778141D01*
X148197001Y-116278141D01*
X148044620Y-115778141D01*
X147854144Y-116478141D01*
X147206525Y-115778141D02*
X147206525Y-116144808D01*
X147244620Y-116211474D01*
X147320811Y-116244808D01*
X147473192Y-116244808D01*
X147549382Y-116211474D01*
X147206525Y-115811474D02*
X147282716Y-115778141D01*
X147473192Y-115778141D01*
X147549382Y-115811474D01*
X147587478Y-115878141D01*
X147587478Y-115944808D01*
X147549382Y-116011474D01*
X147473192Y-116044808D01*
X147282716Y-116044808D01*
X147206525Y-116078141D01*
X146825573Y-115778141D02*
X146825573Y-116244808D01*
X146825573Y-116111474D02*
X146787478Y-116178141D01*
X146749382Y-116211474D01*
X146673192Y-116244808D01*
X146597001Y-116244808D01*
X146444620Y-116244808D02*
X146139859Y-116244808D01*
X146330335Y-116478141D02*
X146330335Y-115878141D01*
X146292239Y-115811474D01*
X146216049Y-115778141D01*
X146139859Y-115778141D01*
X145873192Y-115778141D02*
X145873192Y-116478141D01*
X145530335Y-115778141D02*
X145530335Y-116144808D01*
X145568430Y-116211474D01*
X145644620Y-116244808D01*
X145758906Y-116244808D01*
X145835097Y-116211474D01*
X145873192Y-116178141D01*
X145035097Y-115778141D02*
X145111287Y-115811474D01*
X145149382Y-115844808D01*
X145187478Y-115911474D01*
X145187478Y-116111474D01*
X145149382Y-116178141D01*
X145111287Y-116211474D01*
X145035097Y-116244808D01*
X144920811Y-116244808D01*
X144844620Y-116211474D01*
X144806525Y-116178141D01*
X144768430Y-116111474D01*
X144768430Y-115911474D01*
X144806525Y-115844808D01*
X144844620Y-115811474D01*
X144920811Y-115778141D01*
X145035097Y-115778141D01*
X144082716Y-116244808D02*
X144082716Y-115678141D01*
X144120811Y-115611474D01*
X144158906Y-115578141D01*
X144235097Y-115544808D01*
X144349382Y-115544808D01*
X144425573Y-115578141D01*
X144082716Y-115811474D02*
X144158906Y-115778141D01*
X144311287Y-115778141D01*
X144387478Y-115811474D01*
X144425573Y-115844808D01*
X144463668Y-115911474D01*
X144463668Y-116111474D01*
X144425573Y-116178141D01*
X144387478Y-116211474D01*
X144311287Y-116244808D01*
X144158906Y-116244808D01*
X144082716Y-116211474D01*
X152444620Y-115351141D02*
X152292239Y-115351141D01*
X152216049Y-115317808D01*
X152139859Y-115251141D01*
X152101763Y-115117808D01*
X152101763Y-114884474D01*
X152139859Y-114751141D01*
X152216049Y-114684474D01*
X152292239Y-114651141D01*
X152444620Y-114651141D01*
X152520811Y-114684474D01*
X152597001Y-114751141D01*
X152635097Y-114884474D01*
X152635097Y-115117808D01*
X152597001Y-115251141D01*
X152520811Y-115317808D01*
X152444620Y-115351141D01*
X151758906Y-115117808D02*
X151758906Y-114417808D01*
X151758906Y-115084474D02*
X151682716Y-115117808D01*
X151530335Y-115117808D01*
X151454144Y-115084474D01*
X151416049Y-115051141D01*
X151377954Y-114984474D01*
X151377954Y-114784474D01*
X151416049Y-114717808D01*
X151454144Y-114684474D01*
X151530335Y-114651141D01*
X151682716Y-114651141D01*
X151758906Y-114684474D01*
X150730335Y-114684474D02*
X150806525Y-114651141D01*
X150958906Y-114651141D01*
X151035097Y-114684474D01*
X151073192Y-114751141D01*
X151073192Y-115017808D01*
X151035097Y-115084474D01*
X150958906Y-115117808D01*
X150806525Y-115117808D01*
X150730335Y-115084474D01*
X150692239Y-115017808D01*
X150692239Y-114951141D01*
X151073192Y-114884474D01*
X150349382Y-115117808D02*
X150349382Y-114651141D01*
X150349382Y-115051141D02*
X150311287Y-115084474D01*
X150235097Y-115117808D01*
X150120811Y-115117808D01*
X150044620Y-115084474D01*
X150006525Y-115017808D01*
X150006525Y-114651141D01*
X149054144Y-114851141D02*
X148673192Y-114851141D01*
X149130335Y-114651141D02*
X148863668Y-115351141D01*
X148597001Y-114651141D01*
X148330335Y-115117808D02*
X148330335Y-114651141D01*
X148330335Y-115051141D02*
X148292239Y-115084474D01*
X148216049Y-115117808D01*
X148101763Y-115117808D01*
X148025573Y-115084474D01*
X147987478Y-115017808D01*
X147987478Y-114651141D01*
X147263668Y-114651141D02*
X147263668Y-115017808D01*
X147301763Y-115084474D01*
X147377954Y-115117808D01*
X147530335Y-115117808D01*
X147606525Y-115084474D01*
X147263668Y-114684474D02*
X147339859Y-114651141D01*
X147530335Y-114651141D01*
X147606525Y-114684474D01*
X147644620Y-114751141D01*
X147644620Y-114817808D01*
X147606525Y-114884474D01*
X147530335Y-114917808D01*
X147339859Y-114917808D01*
X147263668Y-114951141D01*
X146768430Y-114651141D02*
X146844620Y-114684474D01*
X146882716Y-114751141D01*
X146882716Y-115351141D01*
X146349382Y-114651141D02*
X146425573Y-114684474D01*
X146463668Y-114717808D01*
X146501763Y-114784474D01*
X146501763Y-114984474D01*
X146463668Y-115051141D01*
X146425573Y-115084474D01*
X146349382Y-115117808D01*
X146235097Y-115117808D01*
X146158906Y-115084474D01*
X146120811Y-115051141D01*
X146082716Y-114984474D01*
X146082716Y-114784474D01*
X146120811Y-114717808D01*
X146158906Y-114684474D01*
X146235097Y-114651141D01*
X146349382Y-114651141D01*
X145397001Y-115117808D02*
X145397001Y-114551141D01*
X145435097Y-114484474D01*
X145473192Y-114451141D01*
X145549382Y-114417808D01*
X145663668Y-114417808D01*
X145739859Y-114451141D01*
X145397001Y-114684474D02*
X145473192Y-114651141D01*
X145625573Y-114651141D01*
X145701763Y-114684474D01*
X145739859Y-114717808D01*
X145777954Y-114784474D01*
X145777954Y-114984474D01*
X145739859Y-115051141D01*
X145701763Y-115084474D01*
X145625573Y-115117808D01*
X145473192Y-115117808D01*
X145397001Y-115084474D01*
X144444620Y-114684474D02*
X144330335Y-114651141D01*
X144139859Y-114651141D01*
X144063668Y-114684474D01*
X144025573Y-114717808D01*
X143987478Y-114784474D01*
X143987478Y-114851141D01*
X144025573Y-114917808D01*
X144063668Y-114951141D01*
X144139859Y-114984474D01*
X144292239Y-115017808D01*
X144368430Y-115051141D01*
X144406525Y-115084474D01*
X144444620Y-115151141D01*
X144444620Y-115217808D01*
X144406525Y-115284474D01*
X144368430Y-115317808D01*
X144292239Y-115351141D01*
X144101763Y-115351141D01*
X143987478Y-115317808D01*
X143530335Y-114651141D02*
X143606525Y-114684474D01*
X143644620Y-114751141D01*
X143644620Y-115351141D01*
X142920811Y-114684474D02*
X142997001Y-114651141D01*
X143149382Y-114651141D01*
X143225573Y-114684474D01*
X143263668Y-114751141D01*
X143263668Y-115017808D01*
X143225573Y-115084474D01*
X143149382Y-115117808D01*
X142997001Y-115117808D01*
X142920811Y-115084474D01*
X142882716Y-115017808D01*
X142882716Y-114951141D01*
X143263668Y-114884474D01*
X142616049Y-115117808D02*
X142463668Y-114651141D01*
X142311287Y-114984474D01*
X142158906Y-114651141D01*
X142006525Y-115117808D01*
D12*
%TO.C,R1*%
X139533333Y-105482380D02*
X139200000Y-105006190D01*
X138961904Y-105482380D02*
X138961904Y-104482380D01*
X139342857Y-104482380D01*
X139438095Y-104530000D01*
X139485714Y-104577619D01*
X139533333Y-104672857D01*
X139533333Y-104815714D01*
X139485714Y-104910952D01*
X139438095Y-104958571D01*
X139342857Y-105006190D01*
X138961904Y-105006190D01*
X140485714Y-105482380D02*
X139914285Y-105482380D01*
X140200000Y-105482380D02*
X140200000Y-104482380D01*
X140104761Y-104625238D01*
X140009523Y-104720476D01*
X139914285Y-104768095D01*
%TO.C,J1*%
X161657404Y-106945720D02*
X162371690Y-106945720D01*
X162514547Y-106993339D01*
X162609785Y-107088577D01*
X162657404Y-107231434D01*
X162657404Y-107326672D01*
X162657404Y-105945720D02*
X162657404Y-106517148D01*
X162657404Y-106231434D02*
X161657404Y-106231434D01*
X161800262Y-106326672D01*
X161895500Y-106421910D01*
X161943119Y-106517148D01*
%TO.C,U1*%
X146537335Y-111979170D02*
X146537335Y-112788694D01*
X146584954Y-112883932D01*
X146632573Y-112931551D01*
X146727811Y-112979170D01*
X146918287Y-112979170D01*
X147013525Y-112931551D01*
X147061144Y-112883932D01*
X147108763Y-112788694D01*
X147108763Y-111979170D01*
X148108763Y-112979170D02*
X147537335Y-112979170D01*
X147823049Y-112979170D02*
X147823049Y-111979170D01*
X147727811Y-112122028D01*
X147632573Y-112217266D01*
X147537335Y-112264885D01*
%TO.C,C1*%
X149817018Y-100489274D02*
X149769399Y-100536893D01*
X149626542Y-100584512D01*
X149531304Y-100584512D01*
X149388446Y-100536893D01*
X149293208Y-100441655D01*
X149245589Y-100346417D01*
X149197970Y-100155941D01*
X149197970Y-100013084D01*
X149245589Y-99822608D01*
X149293208Y-99727370D01*
X149388446Y-99632132D01*
X149531304Y-99584512D01*
X149626542Y-99584512D01*
X149769399Y-99632132D01*
X149817018Y-99679751D01*
X150769399Y-100584512D02*
X150197970Y-100584512D01*
X150483685Y-100584512D02*
X150483685Y-99584512D01*
X150388446Y-99727370D01*
X150293208Y-99822608D01*
X150197970Y-99870227D01*
%TO.C,J2*%
X153226931Y-110091918D02*
X153226931Y-110806204D01*
X153179312Y-110949061D01*
X153084074Y-111044299D01*
X152941217Y-111091918D01*
X152845979Y-111091918D01*
X153655503Y-110187157D02*
X153703122Y-110139538D01*
X153798360Y-110091918D01*
X154036455Y-110091918D01*
X154131693Y-110139538D01*
X154179312Y-110187157D01*
X154226931Y-110282395D01*
X154226931Y-110377633D01*
X154179312Y-110520490D01*
X153607884Y-111091918D01*
X154226931Y-111091918D01*
D13*
%TO.C,*%
X157043374Y-98672145D02*
G75*
G03*
X157043374Y-98672145I-1700000J0D01*
G01*
X141043483Y-114672165D02*
G75*
G03*
X141043483Y-114672165I-1700000J0D01*
G01*
%TO.C,R1*%
X139472936Y-105945000D02*
X139927064Y-105945000D01*
X139472936Y-107415000D02*
X139927064Y-107415000D01*
%TO.C,J1*%
X161115024Y-110722387D02*
X161115024Y-102502387D01*
X159755024Y-110412387D02*
X159755024Y-110212387D01*
X158205024Y-106612387D02*
X158205024Y-103012387D01*
X157405024Y-102212387D02*
X158405024Y-102212387D01*
X160605024Y-103012387D02*
X160605024Y-106612387D01*
X158955024Y-110412387D02*
X159755024Y-110412387D01*
X160605024Y-110212387D02*
X160605024Y-106612387D01*
X158205024Y-106612387D02*
X158205024Y-110212387D01*
X158205024Y-110212387D02*
X158955024Y-110212387D01*
X158955024Y-102812387D02*
X159755024Y-102812387D01*
X159755024Y-110212387D02*
X160605024Y-110212387D01*
X161115024Y-102502387D02*
X157695024Y-102502387D01*
X157695024Y-102502387D02*
X157695024Y-110722387D01*
X159755024Y-102812387D02*
X159755024Y-103012387D01*
X157405024Y-102212387D02*
X157405024Y-103212387D01*
X159755024Y-103012387D02*
X160605024Y-103012387D01*
X157695024Y-110722387D02*
X161115024Y-110722387D01*
X158955024Y-103012387D02*
X158955024Y-102812387D01*
X158955024Y-110212387D02*
X158955024Y-110412387D01*
X158205024Y-103012387D02*
X158955024Y-103012387D01*
%TO.C,U1*%
X147320000Y-111115000D02*
X149270000Y-111115000D01*
X147320000Y-102245000D02*
X149270000Y-102245000D01*
X147320000Y-111115000D02*
X145370000Y-111115000D01*
X147320000Y-102245000D02*
X143870000Y-102245000D01*
%TO.C,C1*%
X147089490Y-99396403D02*
X147611994Y-99396403D01*
X147089490Y-100866403D02*
X147611994Y-100866403D01*
%TO.C,*%
X141043483Y-98672145D02*
G75*
G03*
X141043483Y-98672145I-1700000J0D01*
G01*
%TO.C,J2*%
X152951989Y-108394538D02*
X152865265Y-108394538D01*
X154255265Y-108394538D02*
X154255265Y-103519538D01*
X154255265Y-103519538D02*
X153954758Y-103519538D01*
X153165772Y-103519538D02*
X152865265Y-103519538D01*
X154255265Y-109764538D02*
X153560265Y-109764538D01*
X152865265Y-108394538D02*
X152865265Y-103519538D01*
X154255265Y-108394538D02*
X154168541Y-108394538D01*
X154255265Y-109079538D02*
X154255265Y-109764538D01*
%TO.C,*%
X157043374Y-114672645D02*
G75*
G03*
X157043374Y-114672645I-1700000J0D01*
G01*
%TD*%
M02*
