%TF.GenerationSoftware,KiCad,Pcbnew,(6.0.0)*%
%TF.CreationDate,2022-03-27T15:49:17-04:00*%
%TF.ProjectId,TM_Warthog_Open_Analog_Slew,544d5f57-6172-4746-986f-675f4f70656e,rev?*%
%TF.SameCoordinates,Original*%
%TF.FileFunction,Copper,L1,Top*%
%TF.FilePolarity,Positive*%
%FSLAX46Y46*%
G04 Gerber Fmt 4.6, Leading zero omitted, Abs format (unit mm)*
G04 Created by KiCad (PCBNEW (6.0.0)) date 2022-03-27 15:49:17*
%MOMM*%
%LPD*%
G01*
G04 APERTURE LIST*
G04 Aperture macros list*
%AMRoundRect*
0 Rectangle with rounded corners*
0 $1 Rounding radius*
0 $2 $3 $4 $5 $6 $7 $8 $9 X,Y pos of 4 corners*
0 Add a 4 corners polygon primitive as box body*
4,1,4,$2,$3,$4,$5,$6,$7,$8,$9,$2,$3,0*
0 Add four circle primitives for the rounded corners*
1,1,$1+$1,$2,$3*
1,1,$1+$1,$4,$5*
1,1,$1+$1,$6,$7*
1,1,$1+$1,$8,$9*
0 Add four rect primitives between the rounded corners*
20,1,$1+$1,$2,$3,$4,$5,0*
20,1,$1+$1,$4,$5,$6,$7,0*
20,1,$1+$1,$6,$7,$8,$9,0*
20,1,$1+$1,$8,$9,$2,$3,0*%
G04 Aperture macros list end*
%TA.AperFunction,ComponentPad*%
%ADD10C,3.000000*%
%TD*%
%TA.AperFunction,SMDPad,CuDef*%
%ADD11RoundRect,0.250000X-0.262500X-0.450000X0.262500X-0.450000X0.262500X0.450000X-0.262500X0.450000X0*%
%TD*%
%TA.AperFunction,ComponentPad*%
%ADD12RoundRect,0.200000X-0.450000X0.200000X-0.450000X-0.200000X0.450000X-0.200000X0.450000X0.200000X0*%
%TD*%
%TA.AperFunction,ComponentPad*%
%ADD13O,1.300000X0.800000*%
%TD*%
%TA.AperFunction,SMDPad,CuDef*%
%ADD14RoundRect,0.150000X-0.825000X-0.150000X0.825000X-0.150000X0.825000X0.150000X-0.825000X0.150000X0*%
%TD*%
%TA.AperFunction,SMDPad,CuDef*%
%ADD15RoundRect,0.250000X-0.250000X-0.475000X0.250000X-0.475000X0.250000X0.475000X-0.250000X0.475000X0*%
%TD*%
%TA.AperFunction,ComponentPad*%
%ADD16R,0.850000X0.850000*%
%TD*%
%TA.AperFunction,ComponentPad*%
%ADD17O,0.850000X0.850000*%
%TD*%
%TA.AperFunction,ComponentPad*%
%ADD18C,1.950000*%
%TD*%
%TA.AperFunction,ComponentPad*%
%ADD19C,1.650000*%
%TD*%
%TA.AperFunction,ComponentPad*%
%ADD20C,2.400000*%
%TD*%
%TA.AperFunction,Conductor*%
%ADD21C,0.250000*%
%TD*%
G04 APERTURE END LIST*
D10*
%TO.P,,*%
%TO.N,*%
X155343374Y-98672145D03*
%TD*%
%TO.P,,*%
%TO.N,*%
X139343483Y-114672165D03*
%TD*%
D11*
%TO.P,R1,1*%
%TO.N,+3V3*%
X138787500Y-106680000D03*
%TO.P,R1,2*%
%TO.N,/RST*%
X140612500Y-106680000D03*
%TD*%
D12*
%TO.P,J1,1,Pin_1*%
%TO.N,+3V3*%
X158955024Y-104112387D03*
D13*
%TO.P,J1,2,Pin_2*%
%TO.N,/SDA*%
X158955024Y-105362387D03*
%TO.P,J1,3,Pin_3*%
%TO.N,/SCL*%
X158955024Y-106612387D03*
%TO.P,J1,4,Pin_4*%
%TO.N,GND*%
X158955024Y-107862387D03*
%TO.P,J1,5,Pin_5*%
%TO.N,/BTN*%
X158955024Y-109112387D03*
%TD*%
D14*
%TO.P,U1,1,VCC*%
%TO.N,+3V3*%
X144845000Y-102870000D03*
%TO.P,U1,2,XTAL1/PB0*%
%TO.N,unconnected-(U1-Pad2)*%
X144845000Y-104140000D03*
%TO.P,U1,3,XTAL2/PB1*%
%TO.N,unconnected-(U1-Pad3)*%
X144845000Y-105410000D03*
%TO.P,U1,4,~{RESET}/PB3*%
%TO.N,/RST*%
X144845000Y-106680000D03*
%TO.P,U1,5,PB2*%
%TO.N,unconnected-(U1-Pad5)*%
X144845000Y-107950000D03*
%TO.P,U1,6,PA7*%
%TO.N,unconnected-(U1-Pad6)*%
X144845000Y-109220000D03*
%TO.P,U1,7,PA6*%
%TO.N,/SDA*%
X144845000Y-110490000D03*
%TO.P,U1,8,PA5*%
%TO.N,/MISO*%
X149795000Y-110490000D03*
%TO.P,U1,9,PA4*%
%TO.N,/SCL*%
X149795000Y-109220000D03*
%TO.P,U1,10,PA3*%
%TO.N,unconnected-(U1-Pad10)*%
X149795000Y-107950000D03*
%TO.P,U1,11,PA2*%
%TO.N,/VAR1*%
X149795000Y-106680000D03*
%TO.P,U1,12,PA1*%
%TO.N,/VAR2*%
X149795000Y-105410000D03*
%TO.P,U1,13,AREF/PA0*%
%TO.N,unconnected-(U1-Pad13)*%
X149795000Y-104140000D03*
%TO.P,U1,14,GND*%
%TO.N,GND*%
X149795000Y-102870000D03*
%TD*%
D15*
%TO.P,C1,1*%
%TO.N,+3V3*%
X146400742Y-100131403D03*
%TO.P,C1,2*%
%TO.N,GND*%
X148300742Y-100131403D03*
%TD*%
D10*
%TO.P,,*%
%TO.N,*%
X139343483Y-98672145D03*
%TD*%
D16*
%TO.P,J2,1,MISO*%
%TO.N,/MISO*%
X153560265Y-109079538D03*
D17*
%TO.P,J2,2,VCC*%
%TO.N,+3V3*%
X153560265Y-108079538D03*
%TO.P,J2,3,SCK*%
%TO.N,/SCL*%
X153560265Y-107079538D03*
%TO.P,J2,4,MOSI*%
%TO.N,/SDA*%
X153560265Y-106079538D03*
%TO.P,J2,5,~{RST}*%
%TO.N,/RST*%
X153560265Y-105079538D03*
%TO.P,J2,6,GND*%
%TO.N,GND*%
X153560265Y-104079538D03*
%TD*%
D10*
%TO.P,,*%
%TO.N,*%
X155343374Y-114672645D03*
%TD*%
D18*
%TO.P,S1,A1,A1*%
%TO.N,GND*%
X141565123Y-109856941D03*
D19*
%TO.P,S1,A11,A11*%
%TO.N,+3V3*%
X144815123Y-97876941D03*
%TO.P,S1,A12,A12*%
%TO.N,/VAR2*%
X147315123Y-97876941D03*
%TO.P,S1,A13,A13*%
%TO.N,GND*%
X149815123Y-97876941D03*
D18*
%TO.P,S1,B1,B1*%
%TO.N,/BTN*%
X137065123Y-109856941D03*
D19*
%TO.P,S1,B11,B11*%
%TO.N,+3V3*%
X156045123Y-104106941D03*
%TO.P,S1,B12,B12*%
%TO.N,/VAR1*%
X156045123Y-106606941D03*
%TO.P,S1,B13,B13*%
%TO.N,GND*%
X156045123Y-109106941D03*
D18*
%TO.P,S1,C1,C1*%
%TO.N,unconnected-(S1-PadC1)*%
X141565123Y-103356941D03*
%TO.P,S1,D1,D1*%
%TO.N,unconnected-(S1-PadD1)*%
X137065123Y-103356941D03*
D20*
%TO.P,S1,MH1,MH1*%
%TO.N,unconnected-(S1-PadMH1)*%
X142315123Y-112931941D03*
%TO.P,S1,MH2,MH2*%
%TO.N,unconnected-(S1-PadMH2)*%
X152315123Y-112931941D03*
%TO.P,S1,MH3,MH3*%
%TO.N,unconnected-(S1-PadMH3)*%
X142315123Y-100281941D03*
%TO.P,S1,MH4,MH4*%
%TO.N,unconnected-(S1-PadMH4)*%
X152315123Y-100281941D03*
%TD*%
D21*
%TO.N,/SDA*%
X146007400Y-110490000D02*
X147922880Y-108574520D01*
X154852467Y-106407677D02*
X154852467Y-107321902D01*
X158418305Y-105362387D02*
X158955024Y-105362387D01*
X154524328Y-106079538D02*
X154852467Y-106407677D01*
X152418234Y-106972838D02*
X152418234Y-106200092D01*
X152538788Y-106079538D02*
X153560265Y-106079538D01*
X155377661Y-107847096D02*
X157371451Y-107847096D01*
X157371451Y-107847096D02*
X157371451Y-106409241D01*
X154852467Y-107321902D02*
X155377661Y-107847096D01*
X153560265Y-106079538D02*
X154524328Y-106079538D01*
X144845000Y-110490000D02*
X146007400Y-110490000D01*
X157371451Y-106409241D02*
X158418305Y-105362387D01*
X147922880Y-108574520D02*
X150816552Y-108574520D01*
X152418234Y-106200092D02*
X152538788Y-106079538D01*
X150816552Y-108574520D02*
X152418234Y-106972838D01*
%TO.N,/SCL*%
X157820971Y-107221310D02*
X158429894Y-106612387D01*
X154402947Y-107321180D02*
X154402947Y-109663688D01*
X155183145Y-110443886D02*
X156484712Y-110443886D01*
X157820971Y-109107627D02*
X157820971Y-107221310D01*
X151160049Y-109220000D02*
X153300511Y-107079538D01*
X154402947Y-109663688D02*
X155183145Y-110443886D01*
X149795000Y-109220000D02*
X151160049Y-109220000D01*
X153560265Y-107079538D02*
X154161305Y-107079538D01*
X154161305Y-107079538D02*
X154402947Y-107321180D01*
X156484712Y-110443886D02*
X157820971Y-109107627D01*
X158429894Y-106612387D02*
X158955024Y-106612387D01*
X153300511Y-107079538D02*
X153560265Y-107079538D01*
%TO.N,+3V3*%
X138787500Y-103782500D02*
X138787500Y-106680000D01*
X140512570Y-102057430D02*
X138787500Y-103782500D01*
X143465451Y-102854628D02*
X142668253Y-102057430D01*
X142668253Y-102057430D02*
X140512570Y-102057430D01*
X158955024Y-104112387D02*
X158949578Y-104106941D01*
X144815123Y-97876941D02*
X144815123Y-100128587D01*
X146400742Y-100131403D02*
X146397926Y-100128587D01*
X144829628Y-102854628D02*
X143465451Y-102854628D01*
X144815123Y-102840123D02*
X144845000Y-102870000D01*
X158949578Y-104106941D02*
X156045123Y-104106941D01*
X144845000Y-102870000D02*
X144829628Y-102854628D01*
X144815123Y-100128587D02*
X144815123Y-100531430D01*
X144815123Y-100531430D02*
X144815123Y-102840123D01*
X146397926Y-100128587D02*
X144815123Y-100128587D01*
%TO.N,GND*%
X149815123Y-102849877D02*
X149795000Y-102870000D01*
X149801644Y-100131403D02*
X149815123Y-100117924D01*
X148300742Y-100131403D02*
X149801644Y-100131403D01*
X149815123Y-97876941D02*
X149815123Y-100117924D01*
X160020000Y-107862387D02*
X158955024Y-107862387D01*
X149815123Y-100117924D02*
X149815123Y-100540467D01*
X149815123Y-100540467D02*
X149815123Y-102849877D01*
X160020000Y-102870000D02*
X160020000Y-107862387D01*
X149795000Y-102870000D02*
X160020000Y-102870000D01*
%TO.N,/RST*%
X146224281Y-106680000D02*
X146866184Y-107321903D01*
X144845000Y-106680000D02*
X146224281Y-106680000D01*
X151968714Y-106570670D02*
X151968714Y-106013894D01*
X140612500Y-106680000D02*
X144845000Y-106680000D01*
X151217481Y-107321903D02*
X151968714Y-106570670D01*
X146866184Y-107321903D02*
X151217481Y-107321903D01*
X152903070Y-105079538D02*
X153560265Y-105079538D01*
X151968714Y-106013894D02*
X152903070Y-105079538D01*
%TO.N,/MISO*%
X152540462Y-109079538D02*
X151130000Y-110490000D01*
X151130000Y-110490000D02*
X149795000Y-110490000D01*
X153560265Y-109079538D02*
X152540462Y-109079538D01*
%TO.N,/VAR2*%
X147315123Y-100683277D02*
X147830045Y-101198199D01*
X148534644Y-102685468D02*
X148439468Y-102780644D01*
X148534090Y-101198199D02*
X148534644Y-101198753D01*
X148439468Y-102780644D02*
X148439468Y-105228714D01*
X148620754Y-105410000D02*
X149795000Y-105410000D01*
X147830045Y-101198199D02*
X148534090Y-101198199D01*
X148534644Y-101198753D02*
X148534644Y-102685468D01*
X148439468Y-105228714D02*
X148620754Y-105410000D01*
X147315123Y-97876941D02*
X147315123Y-100683277D01*
%TO.N,/VAR1*%
X151385683Y-105165291D02*
X151385683Y-106215089D01*
X151385683Y-106215089D02*
X150920772Y-106680000D01*
X154861731Y-103330027D02*
X153209973Y-103330027D01*
X153209973Y-103330027D02*
X152400000Y-104140000D01*
X154895612Y-105457430D02*
X154895612Y-103363908D01*
X150920772Y-106680000D02*
X149795000Y-106680000D01*
X152400000Y-104150974D02*
X151385683Y-105165291D01*
X156045123Y-106606941D02*
X154895612Y-105457430D01*
X154895612Y-103363908D02*
X154861731Y-103330027D01*
X152400000Y-104140000D02*
X152400000Y-104150974D01*
%TD*%
M02*
