%TF.GenerationSoftware,KiCad,Pcbnew,(6.0.0)*%
%TF.CreationDate,2022-03-27T15:49:17-04:00*%
%TF.ProjectId,TM_Warthog_Open_Analog_Slew,544d5f57-6172-4746-986f-675f4f70656e,rev?*%
%TF.SameCoordinates,Original*%
%TF.FileFunction,Copper,L2,Bot*%
%TF.FilePolarity,Positive*%
%FSLAX46Y46*%
G04 Gerber Fmt 4.6, Leading zero omitted, Abs format (unit mm)*
G04 Created by KiCad (PCBNEW (6.0.0)) date 2022-03-27 15:49:17*
%MOMM*%
%LPD*%
G01*
G04 APERTURE LIST*
G04 Aperture macros list*
%AMRoundRect*
0 Rectangle with rounded corners*
0 $1 Rounding radius*
0 $2 $3 $4 $5 $6 $7 $8 $9 X,Y pos of 4 corners*
0 Add a 4 corners polygon primitive as box body*
4,1,4,$2,$3,$4,$5,$6,$7,$8,$9,$2,$3,0*
0 Add four circle primitives for the rounded corners*
1,1,$1+$1,$2,$3*
1,1,$1+$1,$4,$5*
1,1,$1+$1,$6,$7*
1,1,$1+$1,$8,$9*
0 Add four rect primitives between the rounded corners*
20,1,$1+$1,$2,$3,$4,$5,0*
20,1,$1+$1,$4,$5,$6,$7,0*
20,1,$1+$1,$6,$7,$8,$9,0*
20,1,$1+$1,$8,$9,$2,$3,0*%
G04 Aperture macros list end*
%TA.AperFunction,ComponentPad*%
%ADD10C,3.000000*%
%TD*%
%TA.AperFunction,ComponentPad*%
%ADD11RoundRect,0.200000X-0.450000X0.200000X-0.450000X-0.200000X0.450000X-0.200000X0.450000X0.200000X0*%
%TD*%
%TA.AperFunction,ComponentPad*%
%ADD12O,1.300000X0.800000*%
%TD*%
%TA.AperFunction,ComponentPad*%
%ADD13R,0.850000X0.850000*%
%TD*%
%TA.AperFunction,ComponentPad*%
%ADD14O,0.850000X0.850000*%
%TD*%
%TA.AperFunction,ComponentPad*%
%ADD15C,1.950000*%
%TD*%
%TA.AperFunction,ComponentPad*%
%ADD16C,1.650000*%
%TD*%
%TA.AperFunction,ComponentPad*%
%ADD17C,2.400000*%
%TD*%
%TA.AperFunction,Conductor*%
%ADD18C,0.250000*%
%TD*%
G04 APERTURE END LIST*
D10*
%TO.P,,*%
%TO.N,*%
X155343374Y-98672145D03*
%TD*%
%TO.P,,*%
%TO.N,*%
X139343483Y-114672165D03*
%TD*%
D11*
%TO.P,J1,1,Pin_1*%
%TO.N,+3V3*%
X158955024Y-104112387D03*
D12*
%TO.P,J1,2,Pin_2*%
%TO.N,/SDA*%
X158955024Y-105362387D03*
%TO.P,J1,3,Pin_3*%
%TO.N,/SCL*%
X158955024Y-106612387D03*
%TO.P,J1,4,Pin_4*%
%TO.N,GND*%
X158955024Y-107862387D03*
%TO.P,J1,5,Pin_5*%
%TO.N,/BTN*%
X158955024Y-109112387D03*
%TD*%
D10*
%TO.P,,*%
%TO.N,*%
X139343483Y-98672145D03*
%TD*%
D13*
%TO.P,J2,1,MISO*%
%TO.N,/MISO*%
X153560265Y-109079538D03*
D14*
%TO.P,J2,2,VCC*%
%TO.N,+3V3*%
X153560265Y-108079538D03*
%TO.P,J2,3,SCK*%
%TO.N,/SCL*%
X153560265Y-107079538D03*
%TO.P,J2,4,MOSI*%
%TO.N,/SDA*%
X153560265Y-106079538D03*
%TO.P,J2,5,~{RST}*%
%TO.N,/RST*%
X153560265Y-105079538D03*
%TO.P,J2,6,GND*%
%TO.N,GND*%
X153560265Y-104079538D03*
%TD*%
D10*
%TO.P,,*%
%TO.N,*%
X155343374Y-114672645D03*
%TD*%
D15*
%TO.P,S1,A1,A1*%
%TO.N,GND*%
X141565123Y-109856941D03*
D16*
%TO.P,S1,A11,A11*%
%TO.N,+3V3*%
X144815123Y-97876941D03*
%TO.P,S1,A12,A12*%
%TO.N,/VAR2*%
X147315123Y-97876941D03*
%TO.P,S1,A13,A13*%
%TO.N,GND*%
X149815123Y-97876941D03*
D15*
%TO.P,S1,B1,B1*%
%TO.N,/BTN*%
X137065123Y-109856941D03*
D16*
%TO.P,S1,B11,B11*%
%TO.N,+3V3*%
X156045123Y-104106941D03*
%TO.P,S1,B12,B12*%
%TO.N,/VAR1*%
X156045123Y-106606941D03*
%TO.P,S1,B13,B13*%
%TO.N,GND*%
X156045123Y-109106941D03*
D15*
%TO.P,S1,C1,C1*%
%TO.N,unconnected-(S1-PadC1)*%
X141565123Y-103356941D03*
%TO.P,S1,D1,D1*%
%TO.N,unconnected-(S1-PadD1)*%
X137065123Y-103356941D03*
D17*
%TO.P,S1,MH1,MH1*%
%TO.N,unconnected-(S1-PadMH1)*%
X142315123Y-112931941D03*
%TO.P,S1,MH2,MH2*%
%TO.N,unconnected-(S1-PadMH2)*%
X152315123Y-112931941D03*
%TO.P,S1,MH3,MH3*%
%TO.N,unconnected-(S1-PadMH3)*%
X142315123Y-100281941D03*
%TO.P,S1,MH4,MH4*%
%TO.N,unconnected-(S1-PadMH4)*%
X152315123Y-100281941D03*
%TD*%
D18*
%TO.N,+3V3*%
X154161305Y-108079538D02*
X154651239Y-107589604D01*
X154651239Y-105500825D02*
X156045123Y-104106941D01*
X144815123Y-97876941D02*
X145964634Y-99026452D01*
X148848454Y-99026452D02*
X152960447Y-103138445D01*
X145964634Y-99026452D02*
X148848454Y-99026452D01*
X154651239Y-107589604D02*
X154651239Y-105500825D01*
X152960447Y-103138445D02*
X155076627Y-103138445D01*
X155076627Y-103138445D02*
X156045123Y-104106941D01*
X153560265Y-108079538D02*
X154161305Y-108079538D01*
%TO.N,GND*%
X153839634Y-99650467D02*
X153839634Y-99936824D01*
X157262064Y-107890000D02*
X158927411Y-107890000D01*
X152959225Y-104079538D02*
X152400000Y-104638763D01*
X149815123Y-97876941D02*
X149819527Y-97872537D01*
X153839634Y-99936824D02*
X157262064Y-103359254D01*
X152960068Y-110078054D02*
X153059759Y-110078054D01*
X141565123Y-109856941D02*
X142240000Y-110531818D01*
X142240000Y-110531818D02*
X142240000Y-110652833D01*
X153560265Y-104079538D02*
X152959225Y-104079538D01*
X152061704Y-97872537D02*
X153839634Y-99650467D01*
X149819527Y-97872537D02*
X152061704Y-97872537D01*
X158927411Y-107890000D02*
X158955024Y-107862387D01*
X155074010Y-110078054D02*
X153059759Y-110078054D01*
X142240000Y-110652833D02*
X144032493Y-112445326D01*
X150592796Y-112445326D02*
X152960068Y-110078054D01*
X152400000Y-109418295D02*
X153059759Y-110078054D01*
X156045123Y-109106941D02*
X157262064Y-107890000D01*
X156045123Y-109106941D02*
X155074010Y-110078054D01*
X152400000Y-109220000D02*
X152400000Y-109418295D01*
X152400000Y-104638763D02*
X152400000Y-109220000D01*
X144032493Y-112445326D02*
X150592796Y-112445326D01*
X157262064Y-103359254D02*
X157262064Y-107890000D01*
%TO.N,/BTN*%
X137065123Y-109856941D02*
X141664634Y-114456452D01*
X152946597Y-114456452D02*
X158290662Y-109112387D01*
X158290662Y-109112387D02*
X158955024Y-109112387D01*
X141664634Y-114456452D02*
X152946597Y-114456452D01*
%TD*%
M02*
