%TF.GenerationSoftware,KiCad,Pcbnew,(6.0.0)*%
%TF.CreationDate,2022-03-27T15:49:17-04:00*%
%TF.ProjectId,TM_Warthog_Open_Analog_Slew,544d5f57-6172-4746-986f-675f4f70656e,rev?*%
%TF.SameCoordinates,Original*%
%TF.FileFunction,Legend,Bot*%
%TF.FilePolarity,Positive*%
%FSLAX46Y46*%
G04 Gerber Fmt 4.6, Leading zero omitted, Abs format (unit mm)*
G04 Created by KiCad (PCBNEW (6.0.0)) date 2022-03-27 15:49:17*
%MOMM*%
%LPD*%
G01*
G04 APERTURE LIST*
%ADD10C,0.254000*%
%ADD11C,0.100000*%
%ADD12C,0.300000*%
G04 APERTURE END LIST*
D10*
%TO.C,S1*%
X147069170Y-103887321D02*
X147129646Y-104068750D01*
X147129646Y-104371131D01*
X147069170Y-104492083D01*
X147008694Y-104552560D01*
X146887742Y-104613036D01*
X146766789Y-104613036D01*
X146645837Y-104552560D01*
X146585361Y-104492083D01*
X146524884Y-104371131D01*
X146464408Y-104129226D01*
X146403932Y-104008274D01*
X146343456Y-103947798D01*
X146222503Y-103887321D01*
X146101551Y-103887321D01*
X145980599Y-103947798D01*
X145920123Y-104008274D01*
X145859646Y-104129226D01*
X145859646Y-104431607D01*
X145920123Y-104613036D01*
X147129646Y-105822560D02*
X147129646Y-105096845D01*
X147129646Y-105459702D02*
X145859646Y-105459702D01*
X146041075Y-105338750D01*
X146162027Y-105217798D01*
X146222503Y-105096845D01*
D11*
X153130123Y-96304941D02*
X139815123Y-96304941D01*
D12*
X144815123Y-95204941D02*
X144815123Y-95204941D01*
D11*
X139980123Y-114503941D02*
X139980123Y-101403941D01*
X149815123Y-114503941D02*
X139980123Y-114503941D01*
D12*
X144815123Y-95403941D02*
X144815123Y-95403941D01*
X144815123Y-95403941D02*
G75*
G03*
X144815123Y-95204941I0J99500D01*
G01*
X144815123Y-95204941D02*
G75*
G03*
X144815123Y-95403941I0J-99500D01*
G01*
%TD*%
M02*
